<svg width="67" height="72" fill="none" xmlns="http://www.w3.org/2000/svg"><path d="M9.791 46.492s-.74.364-1.055.528L7.444 43.6l-1.837.563c-.03.816 1.6 4.1 2.42 5.64l2.747-1.528c.437 1.274 3.038 4.73 4.658 6.205l-3.057 3.093-2.438-2.711-1.2-1.583.927-.728c.127.455 1.844 2.323 2.71 3.238l1.365-1.31-1.837-2.146-1.656-2.366-2.693 1.583c-1.419-2.128-3.475-8.242-3.475-8.242s2.972-.855 4.258-1.182a21.922 21.922 0 0 0 1.455 4.366zm2.656-25.556s-.688-.453-.99-.642l2.294-2.848-1.417-1.298c-.718.388-2.723 3.459-3.635 4.945l2.71 1.594c-.877 1.022-2.538 5.017-2.987 7.16L4.206 28.78l1.101-3.476.756-1.837 1.098.43c-.328.34-1.068 2.767-1.418 3.98l1.821.511.92-2.672 1.199-2.626-2.73-1.519c1.116-2.302 5.343-7.174 5.343-7.174s2.243 2.128 3.178 3.07c-1.835 1.691-3.027 3.469-3.027 3.469zm23.326-10.42s.059-.822.076-1.177l3.606.606.438-1.871c-.69-.436-4.348-.682-6.091-.75l-.064 3.143c-1.32-.264-5.617.242-7.706.899L24.9 7.167l3.57-.74 1.972-.24.161 1.168c-.457-.12-2.935.422-4.163.71l.445 1.84 2.78-.507 2.877-.24-.011-3.123c2.554-.154 8.87 1.15 8.87 1.15s-.758 2.997-1.122 4.273c-2.372-.772-4.506-.942-4.506-.942zm20.775 15.029s.741-.361 1.057-.524l1.28 3.425 1.84-.557c.031-.815-1.587-4.105-2.4-5.649l-2.753 1.518c-.432-1.275-3.02-4.741-4.635-6.221l3.068-3.082 2.428 2.72 1.195 1.587-.93.725c-.126-.455-1.835-2.33-2.7-3.249l-1.369 1.305 1.83 2.154 1.647 2.371 2.699-1.573c1.41 2.134 3.444 8.255 3.444 8.255s-2.975.844-4.262 1.167c-.518-2.44-1.439-4.372-1.439-4.372zm-2.624 25.413s.682.463.98.656l-2.335 2.814 1.399 1.318c.723-.377 2.773-3.418 3.707-4.89l-2.686-1.634c.891-1.009 2.61-4.979 3.092-7.115l4.2 1.129-1.153 3.459-.782 1.826-1.092-.447c.333-.335 1.109-2.75 1.476-3.957l-1.813-.539-.958 2.659-1.238 2.608 2.706 1.559c-1.149 2.285-5.447 7.094-5.447 7.094s-2.212-2.161-3.133-3.117a21.923 21.923 0 0 0 3.077-3.423zM30.55 61.479s-.06.822-.077 1.177l-3.605-.61-.44 1.872c.69.436 4.348.685 6.09.755l.067-3.143c1.32.265 5.617-.239 7.706-.894l1.13 4.2-3.571.738-1.973.239-.16-1.169c.457.12 2.936-.42 4.164-.707l-.443-1.84-2.78.505-2.878.237.008 3.123c-2.553.152-8.87-1.156-8.87-1.156s.761-2.997 1.127-4.273c2.371.774 4.504.946 4.504.946zm-5.777-14.551c-.633.822-.264 1.923.547 2.22.219-1.145.692-1.31 1.056-1.364h1.24c1.205 0 2.381.34 3.543.656.648.176 1.31.29 1.881.327v-1.565c-.262.067-.726 0-1.233-.13-1.477-.377-2.994-.853-4.518-.853h-.204c-.843 0-1.798.04-2.312.709z" fill="#AADAAA"/><path d="M41.3 46.928c.633.822.264 1.923-.548 2.22-.218-1.145-.691-1.31-1.055-1.364h-1.24c-1.205 0-2.381.34-3.543.657a9.782 9.782 0 0 1-1.876.326v-1.565c.262.067.724 0 1.229-.128 1.476-.378 2.993-.855 4.517-.855h.203c.843 0 1.799.04 2.313.709z" fill="#AADAAA"/><path d="M49.036 40.252c-4.73-.8-6.64 1.674-6.64 2.565-.746-1.037-1.237-3.773 3.93-4.294 4.512-.455 6.404 2.208 7.077 3.657.364-.91.928-4.42.892-6.568l1.473-1.874c.255 1.965.149 6.49-1.182 10.116-1.256 3.42-4.51 8.18-8.952 11.19-3.894 2.638-8.788 3.639-11.48 3.639v-7.879h3.22c1.576 0 1.437-.946 1.492-1.382 0 0 .188.087.236.127.692.582.65 1.08.637 1.42-.4 1.546-1.874 1.382-3.948 1.418v4.549c5.586-.619 10.322-3.906 12.008-5.677-2.638.146-5.404-4.403-2.074-7.405 2.054-1.852 4.221 0 4.021 1.547-2.948-2.062-4.949 1.382-3.748 3.02.989 1.349 3.675 2.256 5.258-1.82 1.66-4.273-.837-5.876-2.22-6.35zm-31.715 0c4.73-.8 6.641 1.674 6.641 2.565.746-1.037 1.237-3.773-3.93-4.294-4.512-.455-6.404 2.208-7.077 3.657-.364-.91-.928-4.42-.892-6.568l-1.474-1.874c-.254 1.965-.148 6.49 1.183 10.116 1.255 3.42 4.51 8.18 8.952 11.19 3.893 2.638 8.787 3.639 11.48 3.639v-7.879h-3.22c-1.577 0-1.438-.946-1.492-1.382 0 0-.189.087-.237.127-.691.582-.649 1.08-.636 1.42.4 1.546 1.873 1.382 3.948 1.418v4.549c-5.586-.619-10.323-3.906-12.009-5.677 2.639.146 5.404-4.403 2.075-7.405-2.054-1.852-4.221 0-4.021 1.547 2.947-2.062 4.949 1.382 3.748 3.02-.99 1.349-3.675 2.256-5.258-1.82-1.66-4.273.836-5.876 2.22-6.35z" fill="#AADAAA"/><path d="M45.084 24.023c-10.789 1.037-11.862 12.7-10.716 20.232h1.529c.145-1.528 2.146-1.164 2.165-.036h1.492c-.273-2.784-3.13-2.748-3.912-2.11-.073-1.056-.073-4.568.127-5.86.51-3.293 1.692-5.894 2.984-7.386 5.203-5.204 11.053-2.585 11.134-2.548l.002.001c.081.036 4.185 1.86 2.51 4.202-.954 1.333-2.147 2.524-3.894 3.403-2.903 1.46-8.133.603-9.06 0 1.746 1.219 3.838 1.764 5.621 1.855 4.895-.072 5.859-1.413 6.878-2.22.891-.704 1.843-2.122 2.292-3.038.67-1.295 0-2.856-.873-3.82-2.274-2.511-6.635-2.954-8.279-2.675zm-23.87 0c10.79 1.037 11.863 12.7 10.717 20.232h-1.529c-.145-1.528-2.146-1.164-2.165-.036h-1.492c.273-2.784 3.13-2.748 3.912-2.11.073-1.056.073-4.568-.127-5.86-.51-3.293-1.692-5.894-2.984-7.386-5.203-5.204-11.053-2.585-11.134-2.548l-.002.001c-.082.036-4.185 1.86-2.51 4.202.954 1.333 2.147 2.524 3.894 3.403 2.903 1.46 8.133.603 9.06 0-1.746 1.219-3.838 1.764-5.621 1.855-4.895-.072-5.859-1.413-6.878-2.22-.891-.704-1.844-2.122-2.292-3.038-.67-1.295 0-2.856.873-3.82 2.274-2.511 6.635-2.954 8.278-2.675z" fill="#AADAAA"/><path d="M32.11 26.752V13.36l-1.564.054v9.389c-5.05-4.134-11.099-3.694-13.555-2.784l-1.928 2.147c7.441-3.439 14.834 1.595 17.048 4.585z" fill="#AADAAA"/><path d="M28.605 18.383v-1.674c-1.529-.964-4.015-1.377-4.858-1.383l-2.166 1.165c3.785.218 6.01 1.28 7.024 1.892zm5.563 8.369V13.36l1.565.054v9.389c5.05-4.134 11.098-3.694 13.555-2.784l1.928 2.147c-7.441-3.439-14.834 1.595-17.048 4.585z" fill="#AADAAA"/><path d="M37.699 18.364v-1.673c1.528-.965 4.015-1.377 4.858-1.383l2.165 1.164c-3.785.219-6.01 1.28-7.023 1.892zm-6.182 32.441h3.056v1.528h-3.056v-1.528zM4.73 31.355c-.101.03-.843-.097-1.2-.164-.437 1.558-.583 6.314-.019 9.607l1.22-.182c-.874-6.532.127-9.297 0-9.261zm3.223.509a35.154 35.154 0 0 0-1.164-.181c-.713 1.994-.473 6.44 0 8.624l1.164-.164c-.91-5.095.273-8.224 0-8.279zM22.966 9.028c-.076-.073-.341-.776-.464-1.119-1.565.41-5.744 2.683-8.303 4.832l.772.96c5.199-4.05 8.091-4.58 7.995-4.673zm1.186 3.038c-.072-.21-.317-.82-.43-1.097-2.082.39-5.8 2.842-7.446 4.352l.73.923c3.938-3.357 7.237-3.915 7.146-4.178zm27.224 1.695c.026-.103.507-.68.744-.957-1.13-1.158-5.174-3.666-8.307-4.827l-.453 1.147c6.092 2.515 7.984 4.766 8.016 4.637zm-2.049 2.533c.147-.168.555-.681.74-.917-1.368-1.616-5.338-3.635-7.464-4.319l-.442 1.09c4.865 1.764 6.982 4.354 7.166 4.146zm12.215 24.299c.102-.028.843.102 1.2.17.445-1.554.617-6.31.071-9.605l-1.22.175c.837 6.536-.178 9.296-.05 9.26zm-3.22-.527c.218.045.866.144 1.163.188.724-1.99.509-6.438.048-8.623l-1.166.157c.882 5.1-.318 8.222-.045 8.278zM43.295 62.92c.075.074.325.783.44 1.128 1.574-.375 5.8-2.56 8.404-4.654l-.751-.977c-5.284 3.939-8.187 4.409-8.093 4.502zm-1.122-3.063c.068.212.3.826.407 1.106 2.09-.346 5.859-2.717 7.537-4.192l-.71-.938c-4.009 3.272-7.319 3.76-7.234 4.024zM14.91 58.306c-.025.103-.505.682-.741.959 1.13 1.156 5.178 3.658 8.313 4.815l.451-1.147c-6.095-2.507-7.99-4.755-8.022-4.627zm2.045-2.535a37.55 37.55 0 0 0-.74.918c1.372 1.614 5.344 3.628 7.472 4.309l.44-1.091c-4.868-1.757-6.988-4.345-7.172-4.136z" fill="#AADAAA"/></svg>